<svg xmlns="http://www.w3.org/2000/svg" viewBox="0 0 748.871 68.651"><path d="M520.521 9.272l-4.065-8.204 22.461-.038c.177.008 2.922.172 4.197.508.83.215 1.645.519 2.417.901a11.168 11.168 0 0 1 3.005 2.164 12.068 12.068 0 0 1 1.564 1.941 12.349 12.349 0 0 1 1.546 3.49c.346 1.265.521 2.648.521 4.105v40.034c0 3.896-1.222 7.104-3.631 9.535-2.352 2.372-5.587 3.577-9.617 3.58h-.064l-7.773-.994-10.561 1.233V9.272zm11.567 1.354v47.776l3.796-.004c1.626-.001 2.823-.404 3.558-1.197l.04-.043.046-.039c.763-.649 1.134-1.693 1.134-3.191V14.476c0-1.41-.387-2.467-1.182-3.23-.773-.832-1.967-1.232-3.588-1.232v-1l-.011 1c-1.626 0-3.251.002-4.877.004l1.084.608zM289.794 9.272l-4.065-8.204 22.461-.038c.176.008 2.921.172 4.197.508.83.216 1.645.519 2.417.901.375.187.741.394 1.09.618a11.15 11.15 0 0 1 1.914 1.547 12.18 12.18 0 0 1 1.564 1.94 12.348 12.348 0 0 1 1.546 3.491c.345 1.266.521 2.648.521 4.105v40.034c0 3.896-1.222 7.104-3.63 9.535-2.352 2.372-5.587 3.577-9.618 3.58h-.064l-7.773-.994-10.561 1.233V9.272zm11.568 1.354v47.776l3.796-.004c1.626-.001 2.823-.404 3.558-1.197l.041-.043.045-.039c.763-.649 1.134-1.693 1.134-3.191V14.476c0-1.41-.386-2.467-1.182-3.23-.773-.831-1.966-1.231-3.588-1.231v-1l-.01 1c-1.626 0-3.251.002-4.877.004l1.083.607zm256.22-1.336l-4.188-8.266 29.027.023c2.157.002 3.95.558 5.328 1.65 1.449 1.148 2.184 2.714 2.184 4.652v17.994c0 .907-.093 1.774-.276 2.577-.23 1-.838 1.805-1.807 2.395l-3.916 2.31 2.878 1.595c2.361 1.216 3.622 3.124 3.621 5.502v21.189c0 1.991-.73 3.596-2.173 4.769-1.377 1.122-3.305 1.691-5.727 1.691l-14.1-1.106-10.853 1.204V9.29zm21.038 49.099V39.941l-3.57-2.09-5.715-.005v20.535l9.285.008zm-3.312-30.947l2.812-1.948V10.021l-9.876-.009 1.091.602v16.823l5.973.005zM677.141 9.318l-4.222-8.263 16.012-.014v26.415l5.958-.005 2.795-1.953V1.033l11.719-.006V25.33c-.011.227-.095 1.786-.272 2.575-.226.999-.826 1.805-1.786 2.398l-3.882 2.32 2.853 1.593c2.216 1.153 3.421 2.871 3.558 5.092l.022 10.067v18.021h-11.714v-27.45l-3.546-2.084-6.801.006 1.098.603v28.925l-11.791.011V9.318zm63.91 58.088a8669.22 8669.22 0 0 0-18.464-.025c-1.724-.001-3.3-.538-4.687-1.595-1.471-1.122-2.216-2.706-2.216-4.708V42.689l11.633 6.067v9.647l8.846.011V45.26l-18.388-19.471-.044-.065c-.041-.06-.998-1.461-1.377-2.136a5.336 5.336 0 0 1-.67-2.635V7.242c0-1.624.667-3.084 1.983-4.34 1.302-1.243 2.954-1.874 4.913-1.874 4.399.04 11.116.049 15.979.049 4.683 0 8.308-.008 8.309-.008l1.002-.002v21.53l-11.515-6.103v-6.466h-9.907l1.063.591v9.264l17.614 18.302.044.063c.055.078 1.347 1.923 1.849 2.828.565 1.016.853 2.072.853 3.137v16.824c0 1.72-.616 3.227-1.831 4.478-1.221 1.254-2.892 1.89-4.968 1.89h-.021zm-123.422 0V37.827l-10.38.016 1.09.597v28.965h-11.803V24.437c-.007-2.438.041-4.918.144-7.368.1-2.196.47-4.221 1.1-6.021.64-1.826 1.626-3.546 2.932-5.114 1.295-1.552 3.146-3.144 5.499-4.731l.253-.17 5.364-.003c6.882 0 16.778.01 16.778.01l.999.001v66.367h-11.976zm-4.624-57.473c-1.609.001-2.744.392-3.468 1.193-.819.81-1.198 1.874-1.198 3.294v12.991c3.523-.007 5.697-.01 9.242-.013V9.928l-4.576.005zM366.159 67.406V37.827l-10.38.016 1.09.597v28.965h-11.803V24.437c-.007-2.442.042-4.922.144-7.369.099-2.195.469-4.22 1.1-6.021.639-1.826 1.625-3.546 2.932-5.114 1.293-1.55 3.143-3.142 5.499-4.73l.252-.17 5.364-.003c6.883 0 16.779.01 16.779.01l.999.001v66.367h-11.976zm-4.624-57.473c-1.609.001-2.744.392-3.468 1.193-.819.81-1.198 1.874-1.198 3.294v12.991c3.523-.007 5.697-.01 9.242-.013V9.928l-4.576.005zM244.976 67.406V37.827l-10.38.016 1.09.597v28.965h-11.803V24.437c-.007-2.442.042-4.922.144-7.369.1-2.195.47-4.22 1.1-6.021.639-1.826 1.625-3.546 2.932-5.114 1.294-1.552 3.145-3.144 5.499-4.731l.253-.17 5.363-.003c6.882 0 16.779.01 16.779.01l.999.001v66.367h-11.976zm-4.624-57.473c-1.61.001-2.744.392-3.468 1.193-.819.81-1.198 1.874-1.198 3.294v12.991c3.523-.007 5.697-.01 9.242-.013V9.928l-4.576.005zM63.861 67.406V39.957l-3.557-2.09-5.692-.004v29.543H42.894V9.295l-4.171-8.267s19.779.009 28.933.017c2.152.001 3.94.557 5.317 1.651 1.445 1.15 2.177 2.716 2.177 4.654v18.002c0 .911-.092 1.778-.275 2.579-.229.999-.836 1.805-1.804 2.396l-3.906 2.312 2.871 1.596c2.389 1.237 3.613 3.093 3.613 5.505v27.667H63.861zm-3.3-39.953l2.801-1.948V10.022l-9.835-.007 1.085.601v16.832l5.949.005zM22.094 67.406V37.827l-10.38.016 1.09.597v28.966H1V24.438c-.007-2.439.042-4.92.144-7.37.1-2.196.47-4.221 1.1-6.022C2.884 9.22 3.87 7.5 5.176 5.933 6.47 4.381 8.32 2.79 10.675 1.202l.253-.17 5.363-.003c6.882 0 16.779.01 16.779.01l.999.001v66.367H22.094zM17.47 9.933c-1.609.001-2.744.392-3.468 1.193-.819.81-1.198 1.874-1.198 3.294v12.991c3.523-.007 5.697-.01 9.242-.013V9.928l-4.576.005zm461.481-.4l-4.289-8.479 14.672-.013 13.498 33.92V1.032l11.668-.005v66.356l-10.227.003-13.575-34.661v34.67l-11.748.01V9.533zm-296.911 0l-4.289-8.479 14.672-.013 13.498 33.921V1.032l11.669-.005v66.356l-10.226.003-13.576-34.661v34.67l-11.748.01V9.533zM82.348 67.396V9.44l-4.221-8.399 16.005-.014v66.379l-11.784-.01zm244.478.001V9.44l-4.221-8.399 16.005-.014v66.378l-11.784-.008zm-226.651.001v-8.179l19.129-49.191-8.021-.001-11.108 5.578V1.029l32.539.007v8.117l-19.14 49.258 8.023.001 11.117-5.583v14.576l-32.539-.007zm317.634.007V37.816L411.55 61.59h-6.601l-6.258-23.773v29.588H387.09V9.432l-4.299-8.404h15.476l9.985 34.02 9.981-34.02h11.176v66.377h-11.6zm25.341-.003c-2.009 0-3.762-.564-5.212-1.677-1.53-1.175-2.307-2.729-2.307-4.62V7.35c0-1.823.751-3.357 2.232-4.562 1.418-1.153 3.094-1.739 4.979-1.74.918.006 2.792.009 5.136.009 7.746 0 20.597-.027 20.597-.027l1.002-.002v60.057c0 1.878-.73 3.426-2.171 4.603-1.381 1.128-3.07 1.701-5.019 1.702l-19.233.012h-.004zm4.626-56.785v47.756l9.687-.006V10.022l-10.798.007 1.111.588zM146.239 67.402c-2.008 0-3.761-.564-5.211-1.677-1.531-1.175-2.308-2.729-2.308-4.62V7.35c0-1.823.751-3.358 2.234-4.562 1.417-1.153 3.093-1.739 4.979-1.74.917.006 2.792.009 5.135.009 7.746 0 20.597-.027 20.597-.027l1.002-.002v60.057c0 1.877-.73 3.426-2.171 4.603-1.381 1.128-3.069 1.701-5.019 1.702l-19.233.012h-.005zm4.626-56.785v47.756l9.686-.006V10.022l-10.797.007 1.111.588zm492.041 56.769c-1.966 0-3.681-.567-5.098-1.686-1.489-1.175-2.244-2.727-2.244-4.612V7.327c0-1.818.73-3.351 2.171-4.555 1.388-1.159 3.025-1.746 4.868-1.746 2.406.019 5.477.025 8.643.025 7.905 0 16.399-.042 16.399-.042l1.005-.005V22.57l-11.846-6.032v-6.54l-10.472.006 1.102.6v47.751l9.37-.006v-9.653l11.846-6.049V61.07c0 1.873-.711 3.419-2.114 4.595-1.351 1.133-3.003 1.708-4.91 1.709l-18.715.011h-.005z" fill="#a71930"/><path d="M667.65 2.01v18.929l-9.845-5.013V8.999l-15.395.009 4.025 2.192v48.157l11.37-.007V49.31l9.845-5.028V61.07c0 1.571-.586 2.847-1.756 3.829-1.172.983-2.595 1.475-4.269 1.476-7.475.006-11.22.008-18.714.011h-.005c-1.745 0-3.236-.491-4.478-1.471-1.243-.981-1.864-2.256-1.864-3.827V7.327c0-1.514.604-2.777 1.813-3.787 1.208-1.009 2.616-1.514 4.226-1.514h.005c2.398.019 5.476.025 8.648.025 7.905 0 16.394-.041 16.394-.041m-112.628.015l27.398.022c1.935.002 3.505.48 4.708 1.434 1.203.954 1.805 2.244 1.805 3.869v17.994c0 .841-.085 1.627-.251 2.354-.168.729-.619 1.317-1.353 1.764-2.165 1.276-3.247 1.915-5.409 3.191l4.407 2.442c2.07 1.067 3.107 2.609 3.106 4.627v21.19c0 1.682-.601 3.014-1.804 3.993-1.201.978-2.9 1.467-5.096 1.467h-.013c-5.652-.444-8.473-.667-14.102-1.111-3.941.436-5.909.654-9.837 1.091V9.051c-1.425-2.81-2.136-4.216-3.559-7.026m20.598 26.418l3.499-2.425V9.022l-14.766-.013 3.981 2.196v17.232l7.286.006m3.999 30.947V39.368l-4.299-2.517-6.986-.006V59.38l11.285.01M722.582 2.028h.005c4.283.039 10.752.049 15.938.049 4.7 0 8.346-.008 8.346-.008v18.867l-9.514-5.043V9.028h-14.765l3.921 2.18v9.078l17.84 18.537s1.31 1.869 1.793 2.739c.484.871.726 1.756.726 2.652v16.824c0 1.459-.517 2.719-1.549 3.781-1.03 1.059-2.446 1.587-4.249 1.587h-.02c-7.345-.017-11.04-.021-18.466-.025-1.507-.001-2.867-.465-4.08-1.39-1.214-.926-1.822-2.23-1.822-3.912v-16.74l9.632 5.024v10.039l10.846.014V44.863L718.557 25.16s-.969-1.417-1.33-2.061a4.315 4.315 0 0 1-.542-2.146V7.242c0-1.346.557-2.552 1.674-3.617 1.114-1.064 2.523-1.597 4.223-1.597m-14.18 0v23.303s-.084 1.627-.248 2.355c-.165.73-.611 1.319-1.336 1.767-2.139 1.28-3.21 1.92-5.354 3.2l4.363 2.437c1.927 1.003 2.934 2.433 3.047 4.28l.021 10.008v17.019h-9.714V39.375l-4.275-2.512-10.964.009 3.99 2.191v27.334l-9.791.009V9.078l-3.589-7.024 13.379-.012v26.415l7.273-.006 3.48-2.432V2.033l9.718-.005m-96.575 0c6.882 0 16.778.01 16.778.01v64.368h-9.976v-29.58l-15.28.024 3.99 2.183v27.372h-9.803V24.437a164.23 164.23 0 0 1 .143-7.327c.095-2.101.443-4.013 1.045-5.733.601-1.718 1.52-3.321 2.756-4.804 1.237-1.483 2.999-2.997 5.29-4.542 1.173-.002 2.977-.003 5.057-.003m-4.488 26.385c4.483-.009 6.732-.012 11.242-.016V8.927l-5.577.006c-1.891.002-3.293.509-4.209 1.523-.971.957-1.456 2.278-1.456 3.964v13.993M513.5 2.028v64.356l-8.544.003-15.258-38.956v38.966l-9.748.008V9.294l-3.663-7.241 12.368-.011 15.176 38.138V2.032l9.669-.004m-85.09 0v64.377h-9.601V30.089L410.78 60.59h-5.06l-8.028-30.501v36.316h-9.602V9.191l-3.664-7.163h13.092l10.734 36.571 10.731-36.571h9.427m-90.8 0v64.377l-9.784-.007V9.203l-3.6-7.163 13.384-.012m-121.021 0v64.356l-8.544.003-15.258-38.956v38.966l-9.748.008V9.294l-3.663-7.241 12.368-.011L206.92 40.18V2.032l9.669-.004m-123.457 0v64.377l-9.784-.008V9.203l-3.6-7.163 13.384-.012m-76.84 0c6.882 0 16.778.01 16.778.01v64.368h-9.976v-29.58l-15.28.024 3.99 2.183v27.373H2.001V24.438c-.007-2.443.041-4.887.143-7.328.095-2.101.443-4.013 1.045-5.733.601-1.717 1.519-3.32 2.756-4.804 1.236-1.483 2.998-2.997 5.29-4.542 1.173-.002 2.977-.003 5.057-.003m-4.488 26.385c4.483-.009 6.732-.012 11.242-.016V8.927l-5.577.006c-1.891.002-3.293.509-4.209 1.523-.971.957-1.456 2.278-1.456 3.964v13.993M360.357 2.028c6.882 0 16.778.01 16.778.01v64.368h-9.976v-29.58l-15.28.024 3.99 2.183v27.372h-9.803V24.437a164.23 164.23 0 0 1 .143-7.327c.095-2.101.443-4.013 1.045-5.733.601-1.718 1.52-3.321 2.756-4.804 1.237-1.483 2.999-2.997 5.29-4.542 1.173-.002 2.977-.003 5.057-.003m-4.488 26.385c4.483-.009 6.732-.012 11.242-.016V8.927l-5.577.006c-1.891.002-3.293.509-4.209 1.523-.971.957-1.456 2.278-1.456 3.964v13.993M239.173 2.028c6.882 0 16.778.01 16.778.01v64.368h-9.976v-29.58l-15.28.024 3.99 2.183v27.372h-9.803V24.437a164.23 164.23 0 0 1 .143-7.327c.095-2.101.443-4.013 1.045-5.733.601-1.718 1.52-3.321 2.756-4.804 1.237-1.483 2.999-2.997 5.29-4.542 1.173-.002 2.977-.003 5.057-.003m-4.488 26.385c4.483-.009 6.732-.012 11.242-.016V8.927l-5.577.006c-1.891.002-3.293.509-4.209 1.523-.971.957-1.456 2.278-1.456 3.964v13.993M101.175 2.029l30.539.007v6.929L112.113 59.41l9.721.002 9.88-4.962v11.955l-30.539-.007v-6.991l19.591-50.378-9.72-.002-9.871 4.957V2.029m-60.827 0s18.154.008 27.307.016c1.93.001 3.496.48 4.695 1.434 1.2.955 1.8 2.245 1.8 3.871v18.002c0 .842-.084 1.628-.25 2.356-.167.729-.618 1.318-1.35 1.765l-5.394 3.192 4.394 2.443c2.064 1.069 3.099 2.611 3.099 4.631v26.667h-9.788V39.385l-4.285-2.518-6.964-.005v29.544h-9.718V9.057l-3.546-7.028m20.526 26.424l3.488-2.426V9.023l-14.712-.01 3.962 2.193v17.242l7.262.005M538.918 2.03s2.747.161 3.941.475c.769.2 1.516.478 2.229.83a10.184 10.184 0 0 1 2.737 1.972 11.12 11.12 0 0 1 1.435 1.78c.636.989 1.115 2.07 1.42 3.206.321 1.176.487 2.458.487 3.846v40.034c0 3.7-1.168 6.639-3.341 8.831-2.118 2.137-5.088 3.281-8.908 3.284l-7.831-1.001-9.566 1.117V9.038l-3.455-6.973 20.852-.035m-7.83 57.373l4.797-.005c1.923-.002 3.354-.507 4.29-1.517.989-.841 1.486-2.159 1.486-3.953V14.476c0-1.682-.497-2.999-1.489-3.952-.934-1.007-2.362-1.51-4.28-1.51h-.011c-2.897.001-5.794.005-8.691.011l3.899 2.187v48.191M468.578 2.03v59.055c0 1.571-.602 2.847-1.804 3.829-1.204.983-2.667 1.475-4.387 1.476-7.682.006-11.531.008-19.233.012h-.004c-1.793 0-3.327-.491-4.603-1.47-1.277-.98-1.916-2.256-1.916-3.827V7.35c0-1.514.621-2.776 1.864-3.786 1.243-1.011 2.693-1.515 4.349-1.516.914.007 2.803.009 5.162.009 7.75 0 20.572-.027 20.572-.027m-21.802 57.344l11.686-.007V9.021l-15.816.01 4.13 2.188v48.155M308.192 2.03s2.747.161 3.941.475c.769.2 1.516.478 2.229.83a10.184 10.184 0 0 1 2.737 1.972 11.12 11.12 0 0 1 1.435 1.78c.636.989 1.115 2.07 1.42 3.206.321 1.176.487 2.458.487 3.846v40.034c0 3.7-1.168 6.639-3.341 8.831-2.118 2.137-5.088 3.281-8.908 3.284l-7.831-1.001-9.566 1.117V9.038l-3.455-6.973 20.852-.035m-7.83 57.373l4.797-.005c1.923-.002 3.354-.507 4.29-1.517.989-.841 1.486-2.159 1.486-3.953V14.476c0-1.682-.497-2.999-1.489-3.952-.934-1.007-2.362-1.51-4.281-1.51h-.011c-2.897.001-5.794.005-8.691.011l3.899 2.187v48.191M171.667 2.03v59.055c0 1.571-.602 2.847-1.804 3.829-1.204.983-2.667 1.475-4.387 1.476-7.682.006-11.531.008-19.233.012h-.004c-1.793 0-3.327-.491-4.603-1.47-1.277-.98-1.916-2.256-1.916-3.827V7.35c0-1.514.621-2.776 1.864-3.786 1.243-1.011 2.693-1.515 4.349-1.516.914.007 2.803.009 5.162.009 7.75 0 20.572-.027 20.572-.027m-21.802 57.344l11.686-.007V9.021l-15.816.01 4.13 2.188v48.155M669.65 0l-2.01.01c-.085 0-8.575.041-16.384.041-3.568 0-6.473-.008-8.632-.025-2.103 0-3.957.666-5.529 1.979-1.656 1.383-2.531 3.223-2.531 5.322v53.761c0 2.175.908 4.042 2.625 5.397 1.598 1.261 3.522 1.901 5.717 1.901 7.5-.003 11.246-.005 18.721-.011 2.148-.001 4.016-.655 5.552-1.944 1.617-1.357 2.471-3.211 2.471-5.361V41.015l-2.91 1.486-9.845 5.028-1.09.557v9.265l-7.37.005V11.004l7.37-.004v6.152l1.093.556 9.845 5.013 2.908 1.48V0h-.001zM551.766.022l1.472 2.906 1.021 2.016 2.323 4.584v59.058l2.221-.247c3.865-.43 5.832-.648 9.648-1.07l2.696.213 11.218.883.078.006h.078c2.672 0 4.811-.645 6.372-1.916 1.662-1.353 2.541-3.27 2.541-5.544v-21.19c.001-1.93-.721-4.603-4.159-6.389l-1.326-.735 2.396-1.414c1.216-.74 1.998-1.786 2.286-3.038.201-.879.302-1.821.302-2.803V7.35c0-2.227-.886-4.107-2.562-5.436C586.812.678 584.81.05 582.422.047L555.024.025l-3.258-.003zm18.568 26.416V11.014l6.785.006v13.951l-2.124 1.472-4.661-.005zm0 30.944V38.847l4.443.004 2.842 1.664v16.874l-7.285-.007zM470.578.026l-2.004.004s-12.82.027-20.568.027c-2.352 0-4.236-.003-5.148-.009-2.137.001-4.024.662-5.625 1.964-1.702 1.383-2.602 3.229-2.602 5.338v53.755c0 2.187.933 4.059 2.698 5.414 1.629 1.25 3.587 1.883 5.821 1.883 7.707-.004 11.556-.006 19.239-.012 2.185-.001 4.086-.649 5.65-1.927 1.661-1.357 2.539-3.217 2.539-5.378V.026zm-21.802 11.001l7.686-.005v46.346l-7.686.005V11.027zM173.667.026l-2.004.004s-12.82.027-20.568.027c-2.352 0-4.236-.003-5.148-.009-2.137.001-4.024.662-5.625 1.964-1.702 1.383-2.602 3.229-2.602 5.337v53.755c0 2.187.933 4.059 2.698 5.414 1.629 1.25 3.587 1.883 5.821 1.883 7.707-.004 11.556-.006 19.239-.012 2.185-.001 4.086-.649 5.65-1.927 1.661-1.357 2.539-3.217 2.539-5.378V.026zm-21.802 11.001l7.686-.005v46.346l-7.686.005V11.027zM339.61.026l-2.002.002-13.384.012-3.24.003 1.455 2.895 3.387 6.739v58.72l1.999.001 9.784.007 2.001.001V.026zm-244.478 0L93.13.028 79.746.04l-3.24.003 1.455 2.895 3.387 6.739V68.395l1.998.002 9.784.008 2.002.002V.026zm615.27.001l-2.001.001-9.718.005-1.999.001V24.977l-2.11 1.475-4.643.004V.04l-2.002.002-13.379.012-3.264.003 1.485 2.907 3.37 6.595V68.408l2.002-.002 9.791-.009 1.998-.002V38.867l4.431-.004 2.818 1.656v27.878h13.714V49.378l-.021-10.012v-.059l-.004-.059c-.109-1.78-.908-4.248-4.092-5.918l-1.317-.735 2.384-1.426c1.204-.744 1.977-1.791 2.26-3.042.192-.852.279-2.393.294-2.693l.003-.051V.027zM515.5.027l-2 .001-9.669.004-1.999.001v29.711L490.514 1.302 490.012.04l-1.358.001-12.368.011-3.25.003 1.467 2.9 3.448 6.815v58.636l2.002-.002 9.748-.008 1.998-.002V38.021l11.396 29.095.498 1.271 1.365-.001 8.544-.003 1.999-.001V1.391l.774 1.562 3.247 6.553v59.145l2.232-.261 9.323-1.089 7.589.97.127.016h.128c4.307-.003 7.781-1.308 10.327-3.876 2.601-2.624 3.921-6.069 3.921-10.239V14.139c0-1.546-.188-3.017-.558-4.373a13.08 13.08 0 0 0-3.365-5.868 12.206 12.206 0 0 0-3.266-2.354 13.687 13.687 0 0 0-2.616-.975c-1.342-.353-4.025-.518-4.327-.536l-.06-.003h-.06l-20.852.035-2.565.004V.027zm17.588 10.989l2.793-.002c1.342 0 2.289.293 2.825.87l.039.042.042.04c.589.565.875 1.386.875 2.51v39.452c0 1.171-.263 1.988-.782 2.429l-.091.077-.081.087c-.538.58-1.488.875-2.825.876l-2.795.003V11.016zM218.589.027l-2.001.001-9.669.004-1.999.001v29.711L193.603 1.302 193.101.04l-1.358.001-12.368.011-3.25.003 1.467 2.9 3.448 6.815v58.636l2.002-.002 9.748-.008 1.998-.002V38.021l11.396 29.095.498 1.271 1.365-.001 8.544-.003 1.999-.001V.027h-.001zm-181.491 0l1.464 2.902 3.332 6.603v58.873h13.718V38.863l4.419.003 2.83 1.663v27.877h13.788V39.739c0-1.93-.721-4.602-4.149-6.391l-1.325-.737 2.394-1.417c1.213-.741 1.994-1.787 2.281-3.04.2-.875.3-1.817.3-2.803V7.35c0-2.226-.883-4.106-2.555-5.436C72.038.675 70.04.046 67.656.045 58.503.037 40.349.029 40.349.029L37.098.027zm18.514 26.422V11.017l6.75.005V24.982l-2.114 1.471-4.636-.004zM722.596.028H722.582c-2.224 0-4.109.724-5.604 2.151-1.521 1.45-2.293 3.154-2.293 5.063v13.711c0 1.129.268 2.18.797 3.124.393.702 1.32 2.06 1.424 2.212l.089.13.108.114 18.06 19.125v11.755l-6.846-.009V48.15l-1.075-.561-9.632-5.024-2.925-1.526V61.078c0 2.298.902 4.2 2.609 5.502 1.564 1.193 3.345 1.798 5.292 1.8 7.425.004 11.119.008 18.463.025 2.38 0 4.292-.738 5.707-2.192 1.404-1.445 2.115-3.186 2.115-5.176V44.214c0-1.237-.329-2.456-.978-3.624-.518-.934-1.763-2.715-1.904-2.915l-.089-.127-.108-.112-17.28-17.956v-8.452h6.844v6.069l1.063.564 9.514 5.043 2.937 1.557V.065l-2.004.004c-.001 0-3.645.008-8.342.008-4.846 0-11.541-.008-15.919-.049h-.009zm-110.769 0c-2.081 0-3.887.001-5.06.003l-.609.001-.505.341c-2.434 1.641-4.354 3.296-5.708 4.919-1.384 1.661-2.43 3.486-3.108 5.425-.663 1.894-1.052 4.015-1.155 6.303a167.267 167.267 0 0 0-.145 7.423v43.963h13.803V38.84l7.29-.011v29.577h13.976V.04l-1.998-.002s-9.898-.01-16.781-.01zm-2.488 26.381V14.42c0-1.139.281-1.969.86-2.54l.041-.041.039-.043c.516-.572 1.434-.862 2.727-.864l3.575-.004v15.47c-2.658.003-4.599.006-7.242.011zM430.41.028h-12.924l-.422 1.437-8.812 30.032-8.815-30.032-.422-1.437h-17.859l1.489 2.911 3.445 6.734v58.732h13.602v-22.86l4.094 15.554.392 1.491h8.144l.392-1.491 4.095-15.556v22.862h13.601V.028zm-414.118 0c-2.081 0-3.887.001-5.06.003l-.609.001-.505.341C7.683 2.014 5.762 3.67 4.41 5.293c-1.385 1.658-2.43 3.483-3.109 5.423C.638 12.611.249 14.731.146 17.019a167.312 167.312 0 0 0-.145 7.424v43.962h13.803V38.84l7.29-.011v29.577H35.07V.04L33.072.038s-9.898-.01-16.78-.01zm-2.488 26.381V14.42c0-1.139.281-1.969.86-2.54l.041-.041.039-.043c.517-.572 1.434-.862 2.727-.864l3.575-.004v15.47c-2.658.003-4.6.006-7.242.011zM360.357.028c-2.081 0-3.887.001-5.061.003l-.609.001-.505.341c-2.434 1.641-4.354 3.296-5.707 4.919-1.384 1.661-2.43 3.486-3.108 5.425-.663 1.894-1.052 4.015-1.155 6.303a167.267 167.267 0 0 0-.145 7.423v43.963h13.803V38.84l7.29-.011v29.577h13.976V.04l-1.998-.002c-.001 0-9.899-.01-16.781-.01zm-2.488 26.381V14.42c0-1.139.281-1.969.86-2.54l.041-.041.039-.043c.516-.572 1.434-.862 2.727-.864l3.575-.004v15.47c-2.659.003-4.6.006-7.242.011zM239.173.028c-2.081 0-3.887.001-5.061.003l-.609.001-.505.341c-2.434 1.641-4.354 3.296-5.708 4.919-1.384 1.661-2.43 3.486-3.108 5.425-.663 1.894-1.052 4.015-1.155 6.303a167.267 167.267 0 0 0-.145 7.423v43.962h13.803V38.84l7.29-.011v29.577h13.976V.04l-1.998-.002s-9.897-.01-16.78-.01zm-2.488 26.381V14.42c0-1.139.281-1.969.86-2.54l.041-.041.039-.043c.517-.572 1.434-.862 2.727-.864l3.575-.004v15.47c-2.658.003-4.599.006-7.242.011zM99.175.028v17.198l2.897-1.455 9.447-4.744 6.323.001-18.531 47.654-.136.35v9.365l1.999.001 30.539.007h2.001V51.207l-2.898 1.455-9.456 4.749-6.325-.001 18.543-47.721.136-.35V.036l-1.999-.001-30.539-.007h-2.001zM308.249.03h-.06l-20.852.035-3.217.005 1.428 2.883 3.247 6.553v59.145l2.232-.261 9.323-1.089 7.589.97.127.016h.128c4.307-.003 7.781-1.308 10.327-3.876 2.601-2.624 3.921-6.069 3.921-10.239V14.139c0-1.546-.188-3.017-.558-4.373a13.346 13.346 0 0 0-1.667-3.761 13.189 13.189 0 0 0-1.698-2.107 12.206 12.206 0 0 0-3.266-2.354 13.712 13.712 0 0 0-2.616-.975c-1.342-.353-4.025-.518-4.327-.536l-.061-.003zm-5.887 10.986l2.793-.002c1.342 0 2.289.293 2.825.87l.039.042.042.04c.589.565.875 1.386.875 2.51v39.452c0 1.171-.263 1.988-.782 2.429l-.09.077-.081.087c-.538.58-1.488.875-2.825.877l-2.795.003V11.016h-.001z" fill="#e3d4ad"/></svg>